<svg xmlns="http://www.w3.org/2000/svg" version="1.1" xmlns:xlink="http://www.w3.org/1999/xlink" width="1000" height="1000"><metadata><rdf:RDF xmlns:rdf="http://www.w3.org/1999/02/22-rdf-syntax-ns#" xmlns:dc="http://purl.org/dc/elements/1.1/"><rdf:Description><dc:creator>RealFaviconGenerator</dc:creator><dc:source>https://realfavicongenerator.net</dc:source></rdf:Description></rdf:RDF></metadata><g clip-path="url(#SvgjsClipPath1085)"><rect width="1000" height="1000" fill="#ffffff"></rect><g transform="matrix(2.1892856360969417,0,0,2.1892856360969417,0,145.43424480591975)"><svg xmlns="http://www.w3.org/2000/svg" id="Layer_1" data-name="Layer 1" viewBox="0 0 456.77 323.91" width="456.77" height="323.91"><defs>
    <style>
      .cls-1 {
        fill: #8b2333;
        stroke-width: 0px;
      }
    </style>
  <clipPath id="SvgjsClipPath1085"><rect width="1000" height="1000" x="0" y="0" rx="200" ry="200"></rect></clipPath></defs><path class="cls-1" d="M354.08,127.29c30.49-5.01,63.87-5.46,99.68-.15,2.28.3,3.79-2.12,2.58-3.94-21.7-30.04-47.94-57.8-77.68-82.38-1.52-1.21-3.79-.46-4.25,1.37l-4.55,16.84c-.3,1.37-1.82,2.12-3.19,1.82C235.74,24.73,103.75,58.41.89,150.8c-2.43,2.12.61,5.92,3.19,3.94,109.84-80.71,236.98-93.91,350.76-50.82,1.21.46,1.97,1.82,1.52,3.19-1.67,5.77-3.34,11.38-5.01,17.14-.61,1.67.91,3.34,2.73,3.03Z"></path><path class="cls-1" d="M230.59,258.22h-79.95c-8.65,20.33-19.72,47.18-26.85,65.69h-34.74l89.66-226.06h23.52l89.66,226.06h-34.44l-26.85-65.69ZM162.77,227.88h55.53l-27.46-78.74-28.07,78.74Z"></path><circle class="cls-1" cx="189.02" cy="23.52" r="23.52"></circle></svg></g></g></svg>
