<?xml version="1.0" encoding="UTF-8"?>
<svg id="Layer_1" xmlns="http://www.w3.org/2000/svg" version="1.1" viewBox="0 0 612 150.4">
  <!-- Generator: Adobe Illustrator 30.1.0, SVG Export Plug-In . SVG Version: 2.1.1 Build 136) -->
  <defs>
    <style>
      .st0 {
        fill: #010101;
      }

      .st1 {
        fill: #8c2334;
      }

      .st2 {
        fill: #474647;
      }

      .st3 {
        fill: #8b2333;
      }
    </style>
  </defs>
  <g>
    <g>
      <g>
        <path class="st0" d="M148.5,107.6c0-.1-.2-.2-.3-.2-2.7.3-5.1,1.2-7.3,2.7-.2.1-.3,0-.2-.1.1-.8,1.1-2.5-.2-2.7-.2,0-.3,0-.4.2-1.5,1.7-1.8,3.9-3.5,5.3-2,1.6-4.1,3-6.3,4.2-.2.1-.5.1-.8,0-1.5-1,1.3-3.6-1.2-4.5-2.3-.8-8,3.5-10,4.8-.1,0-.2,0-.2-.2,1.1-2.2,6.6-9.1,9.6-5.8.4.4,1,.1,1-.4-.2-5-7.2-1.3-8.9.5-3.4,3.5-7,6.3-11.9,7.9-.5.2-1-.3-1-.8,0-.4.1-.8.2-1.2,0,0,0,0,.1,0,.2,0,.3-.2.3-.4,0-.2-.1-.2-.3-.3.3-1,.6-1.9,1.1-2.8,0-.2.2-.2.4-.1,3.1,1.4,5.8-2.6,6.1-5.2.2-1.6-.8-3.2-2.6-2.5-3.1,1.3-6.1,7.1-7.1,10.2,0,.2,0,.4-.1.6-4.3.7-8.7,3.8-11.9,6.5,0,0-.1,0-.1,0,0,0,0,0,0-.1,8.3-11.4,17.1-22.5,26.3-33.2.8-1,1.5-2,2-3.1.2-.3-.3-.7-.6-.5-3.2,2.3-6.7,4.5-9.6,6.6-6.7,4.9-13.3,9.7-19.9,14.6-2,1.4-6,4.5-8.2,3.9-.2,0,1.9-.1,1.8-.3-2.3-5.3,6.2-19.1,9.7-22.9,1.4-1.5,2.7-3,4.1-4.6.5-.5.5-1.2-.3-1.4-.2,0-.3,0-.5,0-.8.3-1.5.9-2.2,1.6-6.1,6.1-12.9,17-13.3,25.8-.2,4.6,3.7,5,7,3.2,10.4-5.7,16.9-14.8,26.5-21.7.3-.2.3-.2,0,0-12.6,13.9-24.1,29-34.5,45.2-1.8,2.8-3.3,5.5-4.5,8l2.1,1.3c3.4-7,7.8-13.3,13.3-18.8,3.7-3.7,7.9-7.5,12.8-9.2-.2,2.7,1.4,4.3,4.8,3.1,2.1-.8,4-2,5.7-3.6.3-.3.4-.2.3.2-.2.8,0,1.4.7,2,.1.1.3.2.5.2,2.2.3,7.6-3.8,9.8-5,.2-.1.4.1.3.3-2.8,5.5,1.8,5.2,4.7,3,1.6-1.2,3.1-2.5,4.6-3.9.2-.2.3-.2.1.1l-2,3.9c-.2.5-.1,1,.3,1.3,1,.7,1.6.3,2-.7,2.5-5,6.4-8.6,11.7-10.8.1,0,.2-.2.2-.3ZM112.9,106.7s0,0,0,0h0c.6.4.2,2-.9,3.4l-.3.4c-1.1,1.5-2.4,2.4-3,2h0s0,0,0-.1l4-5.6Z"/>
      <path d="M78.8,146.1l-2.5-1.5v-.2c1.3-2.5,2.8-5.2,4.6-8,10.1-15.7,21.4-30.6,33.5-44.1-3.5,2.7-6.6,5.6-9.7,8.5-4.7,4.4-9.5,9-15.6,12.3-2.1,1.2-4.3,1.3-5.7.5-.8-.5-1.7-1.6-1.6-3.9.4-8.7,7.1-19.7,13.4-25.9.7-.7,1.5-1.3,2.3-1.6.2,0,.4-.1.7,0,.4.1.6.4.7.7,0,.4,0,.8-.3,1.1-1.4,1.5-2.8,3-4.1,4.6-3.3,3.6-11.8,17.4-9.6,22.6,2.1-.7,4.6-2.6,6-3.6h0c7.7-5.8,14.1-10.4,19.9-14.7,1.5-1.1,3.2-2.2,4.9-3.4,1.6-1.1,3.2-2.1,4.7-3.2.2-.2.5-.2.7,0,.2.2.3.4.2.7-.5,1.1-1.2,2.2-2,3.2-8.9,10.4-17.6,21.3-25.7,32.4,2.5-2.1,6.7-5.1,11.1-5.9h0c0-.2,0-.3,0-.5,1-3.4,4-9,7.2-10.4.7-.3,1.4-.3,2,.1.7.5,1,1.5.9,2.6-.2,1.8-1.6,4.2-3.4,5.2-1,.6-2.1.6-3.1.1,0,0,0,0,0,0,0,0,0,0,0,0-.4.8-.8,1.7-1,2.6.1,0,.2.2.2.4,0,.3-.1.5-.4.6,0,.4-.1.7-.2,1.1,0,.2,0,.4.2.5s.3.2.5.1c5.3-1.6,9-4.9,11.8-7.8,1.2-1.2,5.4-3.8,7.7-2.9.9.4,1.5,1.2,1.5,2.5,0,.3-.2.6-.5.8-.3.1-.7,0-.9-.2-.6-.7-1.3-.9-2.1-.8-2.7.3-5.9,4.4-7,6.2.2-.2.5-.3.8-.5,2.6-1.8,7-4.7,9.1-4,1.6.6,1.3,1.8,1.1,2.8-.2.9-.3,1.4.2,1.8.2.1.4.1.6,0,2.2-1.2,4.4-2.6,6.3-4.2.9-.8,1.4-1.8,2-2.9s.9-1.7,1.5-2.5c.2-.2.4-.3.6-.2.3,0,.6.2.7.4.3.5,0,1.2-.1,1.9,0,.2-.1.3-.1.5,2.2-1.5,4.6-2.4,7.3-2.7.3,0,.5.1.5.4h0c0,.2,0,.5-.3.6-5.2,2.2-9.1,5.8-11.6,10.7-.3.6-.7,1-1.1,1.1-.4,0-.8,0-1.3-.3-.5-.4-.7-1.1-.4-1.6l1.7-3.3c-1.3,1.2-2.7,2.3-4.1,3.4-1.7,1.3-4.1,2.1-5.3,1.1-.6-.5-1.1-1.7.3-4.3-.6.3-1.5.8-2.5,1.4-2.6,1.6-5.8,3.7-7.5,3.5-.2,0-.4-.1-.6-.3-.6-.6-.9-1.2-.8-2.1-1.7,1.6-3.6,2.7-5.7,3.5-1.7.6-3.1.6-4.1-.1-.8-.6-1.1-1.6-1.1-2.8-4.6,1.7-8.7,5.3-12.4,9-5.4,5.4-9.9,11.7-13.3,18.7v.2ZM76.9,144.4l1.7,1c3.4-6.9,7.8-13.2,13.3-18.6,3.8-3.8,8-7.6,12.9-9.2h.3c0-.1,0,.2,0,.2-.1,1.3.2,2.3.9,2.8.8.6,2.1.6,3.6,0,2.1-.8,4-1.9,5.6-3.5,0,0,.3-.3.5-.2.2.1.2.4.1.5-.1.7,0,1.3.6,1.8.1,0,.2.1.3.2,1.5.2,4.8-1.9,7.2-3.4,1-.6,1.8-1.2,2.5-1.5.2,0,.4,0,.5,0,.1.1.2.4,0,.5-1,1.9-1.1,3.2-.4,3.8.9.7,3,.2,4.8-1.1,1.5-1.2,3.1-2.5,4.6-3.9.1-.1.3-.3.5-.2.2.1,0,.4,0,.5l-2,3.9c-.2.4,0,.8.3,1.1.4.3.7.3.9.3.3,0,.5-.4.8-.9,2.5-5,6.5-8.7,11.8-10.9,0,0,0,0,0,0h0s0,0,0,0c-2.6.3-5.1,1.2-7.2,2.7,0,0-.2.2-.4,0-.2-.1-.1-.3-.1-.4,0-.2.1-.5.2-.7.2-.5.4-1.2.2-1.5,0-.1-.2-.2-.4-.2,0,0-.2,0-.2,0-.6.7-1,1.6-1.5,2.4s-1.1,2.2-2.1,3c-2,1.6-4.1,3-6.4,4.2-.3.2-.7.1-1,0-.8-.5-.6-1.4-.4-2.2.2-1,.4-1.8-.8-2.2-1.8-.6-6.3,2.4-8.7,4-.4.3-.8.6-1.1.8-.1,0-.3,0-.4,0-.1-.1-.1-.3,0-.4.9-1.8,4.4-6.4,7.5-6.8,1-.1,1.8.2,2.5,1,.1.1.3.1.4,0,.1,0,.2-.2.2-.4,0-1.1-.5-1.9-1.2-2.2-2.1-.8-6.1,1.5-7.3,2.8-2.9,3-6.6,6.2-12,7.9-.3,0-.7,0-.9-.2-.3-.2-.4-.5-.3-.9,0-.4.1-.8.2-1.2h0c0-.1.1-.2.1-.2,0,0,.1,0,.1,0,0,0,.1,0,0-.1,0,0,0,0,0,0h-.2s0-.3,0-.3c.3-1,.6-2,1.1-2.9.1-.3.4-.3.7-.2.9.4,1.8.4,2.7-.1,1.7-.9,2.9-3.2,3.1-4.9.1-.9-.2-1.8-.7-2.2-.4-.3-1-.4-1.6,0-2.9,1.2-5.9,6.7-6.9,10.1,0,.1,0,.2,0,.3,0,0,0,.1,0,.2h0c0,.1-.1.2-.1.2-4.8.8-9.4,4.4-11.8,6.4-.1.1-.3.1-.4,0-.1-.1-.1-.3,0-.4,8.3-11.4,17.2-22.6,26.3-33.2.8-1,1.5-2,2-3.1,0,0,0-.2,0-.2,0,0-.1,0-.2,0-1.5,1.1-3.2,2.2-4.7,3.3-1.7,1.2-3.4,2.3-4.9,3.4-5.9,4.3-12.2,8.9-19.9,14.6h0c-2.1,1.6-6,4.5-8.3,4h-.2s0-.2,0-.2c0-.2,0-.2.7-.3.3,0,.8,0,1.1-.1-2.1-5.6,6.4-19.2,9.8-23,1.4-1.5,2.7-3,4.1-4.6.2-.2.3-.5.2-.7,0-.2-.2-.3-.4-.4-.1,0-.2,0-.4,0-.7.3-1.4.9-2.2,1.6-6.2,6.2-12.8,17-13.2,25.6,0,1.7.4,2.9,1.4,3.5,1.3.8,3.3.6,5.2-.5,6-3.3,10.6-7.6,15.5-12.3,3.4-3.2,6.9-6.6,11-9.5.2-.1.4-.3.5-.1.1.2,0,.3-.2.5-12.5,13.8-24.1,29-34.5,45.2-1.8,2.8-3.3,5.4-4.4,7.8ZM93,123s0,0,0,0c0,0,0,0,0,0ZM115.7,117.4h0ZM118.1,117s0,0,0,0c0,0,0,0,0,0ZM109.2,112.8c-.2,0-.3,0-.5-.1-.1-.1-.2-.3-.1-.4l4.1-5.7h.2c0,0,.1,0,.1,0,.2.1.3.3.4.6.1.7-.3,2-1.2,3.1l-.3.4c-.8,1.1-2,2.1-2.8,2.1ZM109.1,112.4c.5.1,1.6-.6,2.5-1.9l.3-.4c.9-1.2,1.2-2.3,1.1-2.8,0,0,0-.2,0-.2l-3.8,5.4Z"/>
    </g>
    <g>
      <path class="st0" d="M154.4,115.1c-.1,0-.3,0-.4-.2-.9-1.9-3.6-2.7-5.5-3.2-.3,0-.3-.5-.1-.6,1.6-1.2,4.3-2.5,6.2-1.3.2.1.3,0,.4,0,.3-.3.3-.7,0-1.1-2.1-3-11.1,1.4-8,4.1,1.3,1.1,3.5,1.4,5,2.5.2.2.2.3,0,.4-1.8.7-10.2,2.9-8.3,5.8,0,.1.2.2.3.3,3.3,1.4,9.2-2,10.2-5.4,0-.1.1-.2.3-.3l9.1-2.1c.1,0,.2-.1.2-.2.3-.9-8.6,1.1-9.5,1.3ZM149,119.2h-.1c-1.7.9-3.2,1.1-3.4.7,0,0,0,0,0-.1l6-2.9s0,0,0,0c.2.5-.9,1.5-2.6,2.3Z"/>
      <path d="M145.7,122.2c-.6,0-1.2-.1-1.8-.3-.2,0-.3-.2-.4-.4-.3-.5-.4-1-.2-1.5.7-2,5.3-3.5,7.7-4.3.4-.1.7-.2.9-.3-.7-.5-1.5-.8-2.4-1.1-.9-.4-1.9-.7-2.6-1.4-.6-.5-.8-1.2-.6-1.9.5-1.7,3.1-3.1,5.3-3.5,1.7-.3,3.1,0,3.7,1,.3.5.3,1,0,1.4-.2.2-.5.2-.7,0-1.7-1.1-4.2,0-5.9,1.3,0,0,0,.1,0,.1,0,0,0,0,0,.1h.2c1.9.6,4.5,1.4,5.4,3.3,0,0,0,0,.1,0,1.5-.4,9-2.1,9.7-1.4,0,0,.1.2,0,.3,0,.2-.2.3-.4.4l-9.1,2.1c0,0-.1,0-.1.1-.6,1.8-2.6,3.7-5,4.9-1.3.6-2.6.9-3.7.9ZM152.7,107.9c-.4,0-.8,0-1.1.1-2.3.4-4.5,1.9-4.9,3.2-.1.5,0,1,.5,1.4.6.6,1.5.9,2.5,1.3.8.3,1.7.7,2.5,1.2,0,0,.3.2.2.4,0,.2-.3.3-.3.3-.2,0-.6.2-1,.3-2.2.7-6.8,2.2-7.4,4.1-.1.4,0,.8.2,1.2,0,0,.1.2.2.2,1.3.5,3.2.3,5.1-.6,2.3-1.1,4.3-3,4.8-4.6,0-.2.2-.4.4-.4l9.1-2.1c-.9-.2-5.8.7-9.1,1.5h0c-.3,0-.5,0-.6-.3-.9-1.7-3.3-2.5-5.1-3.1h-.2c-.2-.1-.4-.3-.4-.5,0-.2,0-.4.2-.6,1.9-1.4,4.5-2.5,6.4-1.3,0,0,.1,0,.2,0,.3-.2.2-.6,0-.8-.5-.7-1.4-.9-2.2-.9ZM163.6,113.7s0,0,0,0t0,0ZM146.1,120.3c-.4,0-.7-.1-.8-.3,0-.2,0-.3.1-.4l6.1-2.9h.1c0,0,.1,0,.2.2.3.7-1.2,1.8-2.7,2.6h0c-1,.5-2.1.9-2.9.9ZM145.6,119.9h0s0,0,0,0ZM145.8,119.8c.4,0,1.5,0,3-.8h0c1.5-.8,2.3-1.5,2.5-1.9l-5.6,2.7Z"/>
    </g>
  </g>
  <path class="st1" d="M121.5,42.8c-.9-.4-1.8-.8-2.7-1.2-6-2.4-12.6-3.3-19-2.6-2.1.2-4.1.7-6.1,1.2-.5.1-4,.8-4.1,1.4,0,0,2-17.4,2-17.4h46.2V4.1h-64.3l-1.5,12.8c-7.5-8.2-18.2-12.9-29.4-12.9C20.7,4,2.7,21.9,2.7,44h20.8c0-10.5,8.6-19.2,19.2-19.2s10.7,2.3,14.2,6.3c2.1,2.4,4.4,6.3,3.8,11.7-.9,7.1-3.4,9.8-24.5,26.7-18.8,14.9-30.5,36.3-32.1,39.4v15.5h75.7v-20.8h-47.5c4.4-5.8,10.2-12.4,16.9-17.8,9.3-7.4,16.2-12.9,21.2-18.1h16.3c1.2-1.7,2.7-3,4.4-4.1,5.3-3.5,11.5-5.7,17.8-4.1,6,1.5,11.1,5.8,13.8,11.5,2.1,4.4,2.6,9.5,1.8,14.4-.7,4.1-2.4,8-4.9,11.1h23c.5-1.5,1-2.9,1.4-4.4,1.9-7.7,1.7-15.8-.5-23.3-3.3-11.2-11.2-20.8-21.8-25.8Z"/>
  <g>
    <g>
      <g>
        <path class="st2" d="M185.8,123.6h-3.6v16.2h3.6v.4h-7.6v-.4h3.6v-16.2h-3.6v-.3h7.6v.3Z"/>
        <polygon class="st2" points="186.2 140.6 177.7 140.6 177.7 139.4 181.4 139.4 181.4 124 177.7 124 177.7 122.8 186.2 122.8 186.2 124 182.6 124 182.6 139.4 186.2 139.4 186.2 140.6"/>
      </g>
      <g>
        <path class="st2" d="M205.5,140.2v-17h.3l11.3,16.2v-16.2h.4v16.9h-.4l-11.2-16.1v16.1h-.4Z"/>
        <polygon class="st2" points="217.5 140.9 217.3 140.6 216.8 140.6 206.2 125.4 206.2 140.6 205 140.6 205 122.8 205.4 122.8 205.4 122.7 205.5 122.8 206 122.8 216.6 138.1 216.6 122.8 217.8 122.8 217.8 140.6 217.5 140.6 217.5 140.9"/>
      </g>
      <g>
        <path class="st2" d="M242.9,140.2v-16.6h-5.9v-.4h12.1v.4h-5.8v16.6h-.4Z"/>
        <polygon class="st2" points="243.7 140.7 242.5 140.7 242.5 124 236.6 124 236.6 122.8 249.5 122.8 249.5 124 243.7 124 243.7 140.7"/>
      </g>
      <g>
        <path class="st2" d="M269.2,139.8h9v.4h-9.4v-16.9h9.3v.4h-9v7.9h8.8v.4h-8.8v7.9h0Z"/>
        <polygon class="st2" points="278.6 140.6 268.4 140.6 268.3 140.2 268.3 122.8 278.6 122.8 278.6 124 269.6 124 269.6 131.1 278.3 131.1 278.3 132.3 269.6 132.3 269.6 139.4 278.6 139.4 278.6 140.6"/>
      </g>
      <g>
        <path class="st2" d="M313.2,128.3c-1.2-3-4.1-4.8-7.2-4.8s-4.1.9-5.6,2.5c-1.4,1.5-2.3,3.5-2.3,5.8s.9,4.3,2.3,5.8c1.5,1.5,3.4,2.5,5.6,2.5,3.4,0,7-2.7,7.6-6.3h-7.5v-.4h8c0,.6-.2,1.2-.4,1.7-1.1,3.1-4.7,5.3-7.7,5.3s-4.4-1-5.9-2.6-2.4-3.7-2.4-6.1.9-4.5,2.4-6.1c1.5-1.6,3.6-2.5,5.9-2.5,3.4,0,6.5,2,7.6,5.2h-.4Z"/>
        <path class="st2" d="M306,140.8c-2.3,0-4.5-.9-6.2-2.7-1.6-1.7-2.5-4-2.5-6.4s.9-4.7,2.5-6.4,3.8-2.7,6.2-2.7c3.7,0,6.9,2.2,8,5.5l.2.6h-1.3v-.3c-1.2-2.8-3.8-4.6-6.9-4.6s-3.9.8-5.3,2.3c-1.4,1.5-2.2,3.5-2.2,5.5s.8,4,2.2,5.5c1.4,1.5,3.3,2.3,5.3,2.3,3.1,0,6.3-2.4,7.1-5.4h-7.4v-1.3h8.9v.5c-.1.6-.3,1.2-.5,1.8-1.1,3.1-4.7,5.6-8.1,5.6Z"/>
      </g>
      <g>
        <path class="st2" d="M334.3,140.2h-.4v-16.9h5.9c6.8,0,6.8,9.9,0,9.9h-2.7l7.8,7h-.6l-7.8-7v-.4h3.3c6.3,0,6.3-9.2,0-9.2h-5.5v16.6Z"/>
        <path class="st2" d="M346,140.6h-1.8l-8.1-7.3v-.5h-.1c0-.1.1-.1.1-.1v-.3h3.7c2.9,0,4.3-2.1,4.3-4.1s-1.4-4.1-4.3-4.1h-5.1v16.6h-1.2v-17.8h6.3c3.6,0,5.5,2.7,5.5,5.3s-1.9,5.3-5.5,5.3h-1.6l7.8,7Z"/>
      </g>
      <g>
        <path class="st2" d="M371.7,123.6h-3.6v16.2h3.6v.4h-7.6v-.4h3.6v-16.2h-3.6v-.3h7.6v.3Z"/>
        <polygon class="st2" points="372.1 140.6 363.8 140.6 363.8 139.4 367.4 139.4 367.4 124 363.8 124 363.8 122.8 372.1 122.8 372.1 124 368.6 124 368.6 139.4 372.1 139.4 372.1 140.6"/>
      </g>
      <g>
        <path class="st2" d="M396.4,140.2v-16.6h-5.9v-.4h12.1v.4h-5.8v16.6h-.4Z"/>
        <polygon class="st2" points="397.2 140.7 396 140.7 396 124 390.1 124 390.1 122.8 403 122.8 403 124 397.2 124 397.2 140.7"/>
      </g>
      <g>
        <path class="st2" d="M421.8,123.3l6,9.5,6-9.5h.5l-6.2,9.9v7h-.4v-7l-6.2-9.9h.4Z"/>
        <polygon class="st2" points="428.3 140.6 427 140.6 427 133.3 420.5 122.8 422 122.8 427.7 132 433.4 122.8 434.9 122.8 428.3 133.3 428.3 140.6"/>
      </g>
      <g>
        <path class="st2" d="M478.1,140.2h-.4v-16.9h9.2v.4h-8.8v7.9h7.7v.4h-7.8v8.3Z"/>
        <polygon class="st2" points="478.6 140.6 477.3 140.6 477.3 122.8 487.3 122.8 487.3 124 478.6 124 478.6 131.1 486.3 131.1 486.3 132.3 478.6 132.3 478.6 140.6"/>
      </g>
      <g>
        <path class="st2" d="M513.4,123.6h-3.6v16.2h3.6v.4h-7.6v-.4h3.6v-16.2h-3.6v-.3h7.6v.3Z"/>
        <polygon class="st2" points="513.9 140.6 505.4 140.6 505.4 139.4 509 139.4 509 124 505.4 124 505.4 122.8 513.9 122.8 513.9 124 510.3 124 510.3 139.4 513.9 139.4 513.9 140.6"/>
      </g>
      <g>
        <path class="st2" d="M533.5,140.2h-.4v-16.9h5.9c6.8,0,6.8,9.9,0,9.9h-2.7l7.8,7h-.6l-7.8-7v-.4h3.3c6.3,0,6.3-9.2,0-9.2h-5.5v16.6Z"/>
        <path class="st2" d="M545.1,140.6h-1.8l-8.1-7.3v-.5h-.1c0-.1.1-.1.1-.1v-.3h3.7c2.9,0,4.3-2.1,4.3-4.1s-1.4-4.1-4.3-4.1h-5.1v16.6h-1.2v-17.8h6.3c3.6,0,5.5,2.7,5.5,5.3s-1.9,5.3-5.5,5.3h-1.6l7.8,7Z"/>
      </g>
      <g>
        <path class="st2" d="M574.7,126.8c-.2-.7-.4-1.3-.9-1.8-1-1.1-2.7-1.6-4.2-1.6s-3.4.6-4.4,1.9c-.6.7-.8,1.6-.7,2.6.4,5.9,10,1.3,11.1,6.7.8,3.6-2.6,5.7-5.9,5.7s-5.4-1.4-5.8-4.1v-.2h.4c0,0,0,.1,0,.1.3,2.5,3.1,3.8,5.4,3.8s6.1-1.9,5.4-5.3c-1.1-5-10.6-.4-11.1-6.8-.1-1,.2-2,.8-2.8,2.5-3.2,9.4-2.8,10.3,1.6v.2h-.4c0,0,0,0,0,0Z"/>
        <path class="st2" d="M569.6,140.8c-2.8,0-5.9-1.6-6.2-4.5v-.6c-.1,0,1.1-.2,1.1-.2v.6c.4,2.4,3.1,3.5,5.1,3.5s3.5-.7,4.3-1.8c.7-.8.9-1.8.7-2.9-.5-2-2.5-2.3-4.9-2.5-2.8-.3-5.9-.6-6.1-4.3-.1-1.2.2-2.2.9-3.1,1.4-1.8,4.3-2.7,7-2,2.2.5,3.6,1.9,4,3.8v.6c0,0-1.2.3-1.2.3v-.6c-.2-.6-.5-1.2-.9-1.6-.8-.9-2.3-1.5-3.9-1.4-1.4,0-3.1.5-4.1,1.8-.5.6-.7,1.4-.7,2.3.2,2.7,2.5,2.9,5.1,3.2,2.5.3,5.3.5,6,3.5.3,1.5,0,2.8-.9,3.9-1,1.4-3.1,2.3-5.3,2.3Z"/>
      </g>
      <g>
        <path class="st2" d="M599.4,140.2v-16.6h-5.9v-.4h12.1v.4h-5.9v16.6h-.3Z"/>
        <polygon class="st2" points="600.2 140.7 599 140.7 599 124 593.1 124 593.1 122.8 606 122.8 606 124 600.2 124 600.2 140.7"/>
      </g>
    </g>
    <g>
      <path class="st3" d="M400.1,49.2c10.5-1.7,22.1-1.9,34.4,0,.8.1,1.3-.7.9-1.4-7.5-10.4-16.6-20-26.8-28.5-.5-.4-1.3-.2-1.5.5-.5,1.9-1,3.9-1.6,5.8-.1.5-.6.7-1.1.6-45.2-12.5-90.8-.8-126.3,31.1-.8.7.2,2,1.1,1.4,37.9-27.9,81.8-32.4,121.1-17.6.4.2.7.6.5,1.1-.6,2-1.2,3.9-1.7,5.9-.2.6.3,1.2.9,1Z"/>
      <g>
        <path d="M194,11.9c-.6-2.6-3.4-3.7-5.9-3.7-1.9,0-4.1.7-5.2,2.2-.6.7-.8,1.7-.7,2.7.2,3,3.5,3.4,6.5,3.6,4,.5,8.9,1.5,10,6.1.1.6.2,1.3.2,1.9,0,5.6-5.6,8.8-10.7,8.8s-9.9-2.6-10.4-7.8v-.7c0,0,4.1-.1,4.1-.1v.6c0,0,0-.2,0-.2.3,2.7,3.6,4.1,6.2,4.1s6.5-1.7,6.5-4.7,0-.6-.1-1c-.5-2.2-3.5-2.6-6.3-2.8-4.5-.5-9.8-1.5-10.2-7.5h0c-.2-1.9.3-3.8,1.6-5.4,1.9-2.5,5.4-3.8,8.8-3.8s9.1,2.3,9.9,7.6l-4.2.2Z"/>
        <path d="M218.4,24.8h-10.4c-1.1,2.6-2.6,6.1-3.5,8.5h-4.5l11.6-29.2h3l11.6,29.3h-4.5l-3.4-8.5ZM209.6,20.9h7.2l-3.6-10.2-3.6,10.2Z"/>
        <path d="M232.6,33.3h-4.2V4.4h17.2v4.2h-13v8.1h11.6v4.2h-11.6v12.4Z"/>
        <path d="M252.9,29.1h13.4v4.2h-17.7V4.4h17.6v4.2h-13.4v8.1h13.1v4.2h-13.1v8.2Z"/>
        <path d="M278.6,33.4V8.6h-8.8v-4.2h21.6v4.2h-8.8v24.8h-4.1Z"/>
        <path d="M297.3,4.4l7.9,12.7,7.9-12.7h5l-10.7,17.1v11.8h-4.2v-11.8l-10.7-17.1h4.9Z"/>
      </g>
      <path d="M178,117.1V39.9h8.6c0,.1,37.6,54.4,37.6,54.4v-54.3h11v77.1h-8.9l-37.2-53.9v53.9h-11.1Z"/>
      <g>
        <polygon points="249.3 94.1 273.5 94.1 273.5 84.6 249.3 84.6 249.3 71.3 274 71.3 274 61.8 239.8 61.8 239.8 116.9 274.1 116.9 274.1 107.5 249.3 107.5 249.3 94.1"/>
        <polygon points="276.3 61.8 276.3 71.3 292.4 71.3 292.4 117.1 301.9 117.1 301.9 71.3 276.3 71.3 276.3 61.8"/>
      </g>
      <path class="st3" d="M357.5,94.4h-27.6c-3,7-6.8,16.3-9.3,22.7h-12l31-78.1h8.1l31,78.1h-11.9l-9.3-22.7ZM334,84h19.2l-9.5-27.2-9.7,27.2Z"/>
      <path class="st3" d="M417.7,95.6c-2.6,7.5-9,12.2-16.9,12.2s-9.1-1.9-12.5-5.4c-3.4-3.6-5.2-8.2-5.2-13s1.8-9.5,5.2-13.2c3.4-3.5,7.8-5.4,12.5-5.4,7.9,0,13.8,4.2,16.5,11.5l.2.6h9.3l-.3-1.1c-3.2-12.5-13-20.3-25.7-20.3s-14,3-19.1,8.2h0c-5.1,5.4-7.9,12.4-7.9,19.8s2.8,14.2,7.9,19.6c5,5.3,11.8,8.2,19.1,8.2,12.6,0,22.9-8.2,26.1-21l.3-1.1h-9.3l-.2.6Z"/>
      <path class="st3" d="M472.6,95.6c-2.6,7.5-9,12.2-16.9,12.2s-9.1-1.9-12.5-5.4c-3.4-3.6-5.2-8.2-5.2-13s1.8-9.5,5.2-13.2c3.4-3.5,7.8-5.4,12.5-5.4,7.9,0,13.8,4.2,16.5,11.5l.2.6h9.3l-.3-1.1c-3.2-12.5-13-20.3-25.7-20.3s-14,3-19.1,8.2h0c-5.1,5.4-7.9,12.4-7.9,19.8s2.8,14.2,7.9,19.6c5,5.3,11.8,8.2,19.1,8.2,12.6,0,22.9-8.2,26.1-21l.3-1.1h-9.3l-.2.6Z"/>
      <polygon class="st3" points="494 94.3 518.2 94.3 518.2 84.8 494 84.8 494 71.5 518.7 71.5 518.7 62.1 484.5 62.1 484.5 117.1 494 117.1 494 94.3"/>
      <path class="st3" d="M543.6,84.3c-6.2-.6-11.1-1.4-11.4-5.9-.2-1.7.3-3.2,1.1-4.3,1.7-2.3,5.1-3.6,9-3.7,4.3-.1,9.1,1.8,10.1,6.1l.2.7,9.3-.4-.2-.9c-1.5-10.9-11.2-14.8-19-14.8s-13.3,2.8-16.9,7.4c-2.4,3-3.4,6.8-3.1,10.7h0c1,12.6,13.2,13.9,19.7,14.5,5.6.6,10.2,1.3,11,4.6.2.6.2,1.2.2,1.6,0,4.8-5.8,7.8-11.1,7.8s-10.2-2.5-10.6-6.8h0v-1.6c-.1,0-9.6.2-9.6.2v2.4c1.2,9.9,11.2,15.2,20.2,15.2s20.7-6.4,20.7-17.1-.2-2.4-.4-3.7c-2-8.8-10.8-11-19.2-12Z"/>
      <path class="st3" d="M605.9,96.3c-2.1-8.8-10.9-11-19.2-12-6.2-.6-11.1-1.4-11.4-5.9-.2-1.7.3-3.2,1.1-4.3,1.7-2.3,5.1-3.6,9-3.7,4.3-.1,9.1,1.8,10.1,6.1l.2.7,9.3-.4-.2-.9c-1.5-10.9-11.2-14.8-19-14.8s-13.3,2.8-16.9,7.4c-2.4,3-3.4,6.8-3.1,10.7h0c1,12.6,13.2,13.9,19.7,14.5,5.6.6,10.2,1.3,11,4.6.2.6.2,1.2.2,1.6,0,4.8-5.8,7.8-11.1,7.8s-10.2-2.5-10.6-6.8h0v-1.6c-.1,0-9.6.2-9.6.2v2.4c1.2,9.9,11.2,15.2,20.2,15.2s20.7-6.4,20.7-17.1c0-1-.1-2.4-.4-3.7Z"/>
      <circle class="st3" cx="343.1" cy="13.4" r="8.1"/>
    </g>
  </g>
</svg>
